<?xml version="1.0" encoding="utf-8"?>
<!-- Generator: Adobe Illustrator 20.0.0, SVG Export Plug-In . SVG Version: 6.00 Build 0)  -->
<svg version="1.1" id="Layer_1" xmlns="http://www.w3.org/2000/svg" xmlns:xlink="http://www.w3.org/1999/xlink" x="0px" y="0px"
	 viewBox="0 0 464.1 322.9" style="enable-background:new 0 0 464.1 322.9;" xml:space="preserve">
<style type="text/css">
	.st0{fill:#C6C6C6;}
	.st1{fill:#F2F2F2;}
	.st2{fill:#E99E00;}
</style>
<path class="st0" d="M234,178.9c-0.3,0-0.6,0-0.8-0.1c-6.3-2.2-38.4-14.8-56.4-45c-5.2-8.6-7.4-19.1-8.3-27.4
	c-3.3,1.7-7.3,3.7-7.9,4c-10.6,5.1-20.3,8.2-29.6,9.5c-0.1,0-0.2,0-0.4,0c-2.4,0.3-4.7,0.5-7,0.5c-1.9,0-3.9-0.1-5.7-0.3
	c-4.7-0.5-8.3-1.7-11.3-3.6c-3.5-2.2-5.9-5.6-6.7-9.3c-2.6-0.5-5.1-1.2-7.4-2.2c-2.4-1-4.5-2.2-6.4-3.7c-3.2-2.6-5.4-6-6.1-9.7
	c-4.7-0.9-8.6-2.3-11.9-4.3c-4.5-2.8-7.5-7.1-8.1-11.5c-1.5-0.5-3-1.2-4.5-2c-3.9-2.1-7.4-5.2-10.2-8.8c-2.1-2.7-3.8-5.8-4.8-9
	c-1-3-1.2-5.9-1.4-8.8c0-0.7,0.2-1.3,0.7-1.8c0.5-0.5,1.1-0.8,1.8-0.8c0,0,2,0,2,0l36.9,0.3c0.2-1.2,0.5-2.2,0.9-3.3
	c1.9-5.2,5.8-9.2,10.9-11.5c2.6-1.1,5.4-1.7,8.2-1.7c1.4,0,2.9,0.1,4.3,0.4c0.2-0.5,0.5-0.9,0.7-1.4c0.7-1.3,1.6-2.6,2.6-3.8
	c1.2-1.5,2.6-2.7,4.1-3.8c3.1-2.4,6.9-4,10.9-4.7c1.3-0.2,2.7-0.3,4-0.3c1.7,0,3.4,0.2,5,0.5c0.8,0.2,1.6,0.4,2.3,0.6
	c1.9-3.1,4.2-5.8,6.8-8.1c6-5.2,13.7-8.1,21.7-8.2l0.3,0c6.4,0,12.7,1.7,17.7,4.9c4.2,2.7,7.7,5.9,10.3,9.6
	c2.9,4.1,4.8,8.8,5.8,14.3l7.2-1.3c9.7-1.8,19.5-3.6,29.3-5.4c0.1,0,0.3,0,0.4,0c0.1,0,0.3,0,0.4,0c9.2,1.7,18.3,3.4,27.4,5.1
	l7.1,1.3c1-5.3,2.9-9.9,5.7-14c2.6-3.7,6.1-7,10.3-9.6c5-3.2,11.3-4.9,17.7-4.9l0.3,0c8,0.1,15.7,3,21.7,8.2c2.6,2.2,4.9,5,6.8,8.1
	c0.8-0.3,1.6-0.5,2.4-0.6c1.6-0.3,3.3-0.5,5-0.5c1.4,0,2.7,0.1,4,0.3c4,0.7,7.8,2.3,10.9,4.7c1.4,1.1,2.8,2.4,4,3.8
	c1,1.2,1.9,2.5,2.6,3.8c0.3,0.5,0.5,0.9,0.7,1.4c1.4-0.3,2.8-0.4,4.3-0.4c2.9,0,5.6,0.6,8.2,1.7c5.1,2.2,9,6.3,10.9,11.5
	c0.4,1,0.7,2.1,0.9,3.3l38.2-0.4c0,0,1.9,0,1.9,0c0.7,0,1.3,0.3,1.8,0.8c0.5,0.5,0.7,1.2,0.7,1.8c-0.2,3.3-0.5,6-1.5,8.8
	c-1,3.2-2.6,6.2-4.8,9c-2.8,3.6-6.3,6.6-10.2,8.8c-1.5,0.8-3,1.5-4.5,2c-0.6,4.5-3.6,8.7-8.1,11.5c-3.2,2-7.2,3.5-11.9,4.3
	c-0.7,3.6-2.8,7.1-6.1,9.6c-1.9,1.5-4,2.7-6.4,3.7c-2.3,1-4.8,1.7-7.4,2.2c-0.8,3.7-3.2,7-6.7,9.2c-3,1.9-6.6,3-11.3,3.6
	c-1.9,0.2-3.8,0.3-5.7,0.3c-2.3,0-4.6-0.2-7-0.5c-0.1,0-0.3,0-0.4-0.1c-9.2-1.2-19.2-4.4-29.6-9.5c-0.6-0.3-4-2-7-3.5
	c-0.9,8.1-3.1,18.4-8.2,26.9c-18,30.1-50.3,42.7-56.6,45C234.5,178.8,234.2,178.9,234,178.9z"/>
<g id="XMLID_10_">
	<g>
		<path class="st1" d="M383.3,47.5c0,0,0,0.1,0,0.1l-85.5,0.8c0-4,0-8.1,0-12.1c-7.7-1.4-15.3-2.8-23-4.2c0.2-2.6,0.6-5.1,1.5-7.6
			c2.1-6.2,6.4-11.7,11.9-15.1c4.2-2.6,9.1-4.1,14-4.3c5-0.3,10.1,0.9,14.6,3.2c4,2.1,7.4,5.1,10.1,8.7c0.5,0.7,1,1.4,1.5,2.1
			c1.1,1.8,1.9,3.7,2.6,5.7c0.1,0.3,0.4,0.6,0.8,0.6c0.1,0,0.2,0,0.3,0c0.4-0.1,0.7-0.6,0.5-1c-0.4-1.2-0.9-2.4-1.4-3.5
			c3.5-1.4,7.5-1.8,11.2-1.2c3.5,0.6,6.8,2.1,9.5,4.4c2.5,2,4.5,4.7,5.9,7.6c1.1,2.4,1.7,4.9,1.8,7.6c0,0.4,0.4,0.7,0.8,0.7
			c0,0,0,0,0,0c0.4,0,0.8-0.3,0.8-0.8c-0.1-1.9-0.4-3.7-0.9-5.4c2-0.8,4.2-1.2,6.4-1.1c3.6,0.1,7.3,1.3,10.2,3.6
			C380.4,38.8,382.6,43,383.3,47.5z"/>
		<path class="st0" d="M362.5,105.3c-1.1,7.1-9.7,9.2-15.8,9.5c-5.4,0.3-10.6-0.1-15.8-1.2c-10.4-2.3-20.6-6.1-30.3-10.7
			c-0.7-0.4-1.5-0.7-2.2-1.1c-0.3-0.1-0.6-0.3-0.8-0.4c0.2-3.7,0.2-6.1,0.2-6.1c0-4.5,0-7.5,0-24.8c0-8.4,0-14.5,0-19.7
			c0-0.3,0-0.7,0-1l124,1.2c0,0.3-0.3,0.5-0.4,0.8C419.6,62,410.5,71.5,400,72.2c-4.8,0.3-9.7-0.3-14.4-0.7
			c-4.5-0.4-9.1-0.8-13.6-1.2c-1.3-0.1-2.7-0.3-4-0.4c-16.6-1.6-33.2-3.1-49.8-5c7.8,1.1,15.6,2.2,23.4,3.3
			c10.9,1.5,45.6,5.7,56.6,6.4c1.4,0.1,2.8,0,4.1-0.1c-0.5,4.1-3.6,7.3-7.1,9.2c-7.9,4.2-17.1,4.5-25.8,3.7
			c-11.7-1.2-44.9-8.6-46.4-8.9c0.5,0.2,4.6,1.4,10.6,3c9.9,2.6,37.2,10.2,48.7,8.5c0,0,0.1,0,0.1,0c-0.4,3.4-2.8,6.3-5.6,8.2
			c-8.3,5.6-19.2,5.8-28.7,4.1c-5.6-1-11.3-2.4-16.7-4.1c-1.5-0.5-2.5-0.8-2.6-0.9c0.1,0,1,0.5,2.5,1.1c4.3,1.9,8.8,3.5,13.3,4.8
			C350.4,104.8,356.5,105.7,362.5,105.3z"/>
		<path d="M371.9,70.2c4.5,0.4,9.1,0.9,13.6,1.2c4.7,0.4,9.7,1.1,14.4,0.7c10.5-0.7,19.7-10.2,21.4-20.4c0-0.3,0.4-0.6,0.4-0.8
			l-124-1.2v-1.4l85.5-0.8h0.1l40.3-0.4l1.9,0c-0.2,2.8-0.5,5.5-1.3,8.2c-1,3-2.5,5.8-4.4,8.2c-2.6,3.3-5.8,6.1-9.4,8.1
			c-1.8,1-3.7,1.8-5.6,2.2c0,0.1,0,0.2,0,0.4c-0.1,4.6-3.3,8.6-7.1,10.9c-3.8,2.4-8.3,3.6-12.8,4.3c-0.2,3.9-2.3,7.4-5.4,9.9
			c-1.8,1.4-3.7,2.5-5.8,3.3c-2.8,1.1-5.7,1.9-8.7,2.3c-0.2,3.9-2.6,7.2-5.8,9.3c-3.1,1.9-6.7,2.8-10.3,3.2c-4,0.5-8.1,0.4-12.1-0.1
			c-0.1,0-0.2,0-0.3,0c-10-1.3-19.8-4.9-28.9-9.2c-0.8-0.4-6.7-3.3-9.9-5l0.6-1.3c0.7,0.4,1.5,0.7,2.2,1.1
			c9.6,4.6,19.8,8.4,30.3,10.7c5.2,1.1,10.5,1.5,15.8,1.2c6-0.4,14.7-2.4,15.8-9.5c-6,0.4-12.1-0.5-17.9-2.2
			c-4.5-1.3-9-2.9-13.3-4.8c-1.5-0.7-2.4-1.1-2.5-1.1c0.1,0,1,0.4,2.6,0.9c5.5,1.8,11.1,3.2,16.7,4.1c9.5,1.7,20.4,1.5,28.7-4.1
			c2.8-1.9,5.2-4.8,5.6-8.2c0,0-0.1,0-0.1,0c-11.5,1.8-38.8-5.8-48.7-8.5c-6-1.6-10.1-2.9-10.6-3c1.5,0.3,34.6,7.8,46.4,8.9
			c8.7,0.9,17.9,0.6,25.8-3.7c3.5-1.9,6.6-5.1,7.1-9.2c-1.3,0.2-2.7,0.2-4.1,0.1c-11-0.7-45.7-4.9-56.6-6.4
			c-7.8-1.1-15.6-2.2-23.4-3.3c16.6,1.8,33.2,3.3,49.8,5C369.3,70,370.6,70.1,371.9,70.2z"/>
		<path class="st1" d="M189.8,24.5c0.9,2.6,1.3,5.2,1.5,7.9c-7,1.3-13.9,2.6-21,3.9c0,4,0,8.1,0,12.1l-87.6-0.8c0,0,0-0.1,0-0.1
			c0.7-4.4,2.9-8.7,6.4-11.5c2.9-2.2,6.5-3.5,10.2-3.6c2.2-0.1,4.4,0.3,6.4,1.1c-0.5,1.7-0.8,3.5-0.9,5.4c0,0.4,0.3,0.8,0.8,0.8
			c0,0,0,0,0,0c0.4,0,0.8-0.3,0.8-0.7c0.1-2.7,0.7-5.2,1.8-7.6c1.4-2.9,3.3-5.6,5.9-7.6c2.7-2.2,6-3.8,9.5-4.4
			c3.8-0.6,7.7-0.2,11.2,1.2c-0.5,1.1-1,2.3-1.4,3.5c-0.1,0.4,0.1,0.9,0.5,1c0.1,0,0.2,0,0.3,0c0.3,0,0.7-0.2,0.8-0.6
			c0.7-2,1.6-3.9,2.6-5.7c0.5-0.7,0.9-1.4,1.5-2.1c2.7-3.6,6.1-6.6,10.1-8.7c4.5-2.3,9.6-3.4,14.6-3.2c4.9,0.2,9.8,1.7,14,4.3
			C183.5,12.8,187.7,18.3,189.8,24.5z"/>
		<path class="st0" d="M149.1,64.9c-16.6,1.8-33.2,3.3-49.8,5c-1.4,0.1-2.7,0.3-4,0.4c-4.5,0.4-9.1,0.9-13.6,1.2
			c-4.8,0.4-9.7,1.1-14.4,0.7C56.7,71.5,47.5,62,45.8,51.8c-0.1-0.3-0.2-0.6-0.2-0.8l124.8-1.2c0,0.3,0,0.7,0,1c0,5.2,0,11.4,0,19.7
			c0,17.3,0,20.4,0,24.8c0,0-0.1,2.2,0.1,5.6c-0.3,0.1-0.5,0.3-0.8,0.4c-1,0.5-2.1,1-3.1,1.5c-9.6,4.6-19.8,8.4-30.3,10.7
			c-5.2,1.1-10.5,1.5-15.8,1.2c-6-0.4-14.7-2.4-15.8-9.5c6,0.4,12.1-0.5,17.9-2.2c4.5-1.3,9-2.9,13.3-4.8c1.5-0.7,2.4-1.1,2.5-1.1
			c-0.1,0-1,0.4-2.6,0.9c-5.4,1.8-11.1,3.2-16.7,4.1c-9.5,1.7-20.4,1.5-28.7-4.1c-2.8-1.9-5.2-4.8-5.6-8.2c0,0,0.1,0,0.1,0
			c11.5,1.8,38.8-5.8,48.7-8.5c6-1.6,10.1-2.9,10.6-3c-1.5,0.3-34.6,7.8-46.4,8.9c-8.7,0.9-17.9,0.6-25.8-3.7
			c-3.5-1.9-6.7-5.1-7.1-9.2c1.3,0.2,2.7,0.2,4.1,0.1c11-0.7,45.7-4.9,56.6-6.4C133.4,67.1,141.2,66,149.1,64.9z"/>
		<path d="M99.3,69.8c16.6-1.6,33.2-3.1,49.8-5c-7.8,1.1-15.6,2.2-23.4,3.3c-11,1.5-45.6,5.7-56.6,6.4c-1.4,0.1-2.8,0-4.1-0.1
			c0.4,4.1,3.6,7.3,7.1,9.2c7.9,4.2,17.1,4.5,25.8,3.7c11.7-1.2,44.9-8.6,46.4-8.9c-0.5,0.2-4.6,1.4-10.6,3
			c-9.9,2.6-37.2,10.2-48.7,8.5c0,0-0.1,0-0.1,0c0.4,3.4,2.8,6.3,5.6,8.2c8.3,5.6,19.2,5.8,28.7,4.1c5.6-1,11.3-2.4,16.7-4.1
			c1.5-0.5,2.5-0.8,2.6-0.9c-0.1,0-1,0.5-2.5,1.1c-4.3,1.9-8.8,3.5-13.3,4.8c-5.8,1.7-11.9,2.6-17.9,2.2c1.1,7.1,9.8,9.2,15.8,9.5
			c5.4,0.3,10.6-0.1,15.8-1.2c10.4-2.3,20.6-6.1,30.3-10.7c1-0.5,2.1-1,3.1-1.5l0.6,1.2c-2.7,1.5-9.9,5.1-10.8,5.5
			c-9.1,4.4-18.9,7.9-28.9,9.2c-0.1,0-0.2,0-0.3,0c-4,0.5-8.1,0.6-12.1,0.1c-3.6-0.4-7.2-1.3-10.3-3.2c-3.3-2.1-5.6-5.4-5.8-9.3
			c-2.9-0.4-5.9-1.1-8.7-2.3c-2.1-0.9-4-2-5.8-3.3c-3.1-2.4-5.2-5.9-5.4-9.9c-4.5-0.6-9-1.9-12.8-4.3c-3.8-2.4-6.9-6.3-7.1-10.9
			c0-0.2,0-0.3,0-0.4c-1.9-0.5-3.8-1.2-5.6-2.2c-3.6-2-6.9-4.8-9.4-8.1c-1.9-2.5-3.4-5.3-4.4-8.2c-0.9-2.7-1.1-5.4-1.3-8.2l2,0
			l39.1,0.4c0,0,0-0.1,0-0.1l0.1,0c0,0,0,0.1,0,0.1l87.6,0.8v1.4L45.6,51c0,0.3,0.2,0.5,0.2,0.8C47.5,62,56.7,71.5,67.2,72.2
			c4.8,0.3,9.7-0.3,14.4-0.7c4.5-0.4,9.1-0.8,13.6-1.2C96.6,70.1,97.9,70,99.3,69.8z"/>
		<path d="M113.7,22.1c2.9-2.2,6.3-3.6,9.9-4.2c2.7-0.5,5.5-0.4,8.1,0.2c0.9,0.2,1.7,0.4,2.5,0.7c0.1,0,1.4,0.5,1.4,0.5
			c1.9-3.5,4.3-6.6,7.3-9.2c5.6-4.8,12.8-7.5,20.2-7.6c5.7-0.1,11.8,1.5,16.7,4.5c3.8,2.4,7,5.3,9.6,9c3.4,4.8,5,10.1,5.7,15.8
			c13-2.4,25.9-4.8,39-7.2c12.4,2.3,24.7,4.6,37,6.8c0.7-5.5,2.4-10.7,5.7-15.4c2.6-3.7,5.8-6.6,9.6-9c4.9-3.1,10.9-4.6,16.7-4.5
			c7.4,0.1,14.6,2.7,20.2,7.6c3,2.6,5.4,5.7,7.3,9.2c0,0,1.3-0.5,1.4-0.5c0.8-0.3,1.7-0.5,2.5-0.7c2.7-0.6,5.4-0.6,8.1-0.2
			c3.6,0.6,7,2,9.9,4.2c1.3,1,2.6,2.2,3.7,3.5c0.9,1.1,1.7,2.2,2.4,3.4c0.6,1,1,2,1.4,3.1c4.2-1.4,8.9-1.2,13,0.6
			c4.4,1.9,7.9,5.5,9.5,10.1c0.6,1.5,0.9,3.1,1,4.7c0,0.1,0,0.1,0,0.2h-0.1c0,0,0-0.1,0-0.1c-0.7-4.4-2.9-8.7-6.4-11.5
			c-2.9-2.2-6.5-3.5-10.2-3.6c-2.2-0.1-4.4,0.3-6.4,1.1c0.5,1.7,0.8,3.5,0.9,5.4c0,0.4-0.3,0.8-0.8,0.8c0,0,0,0,0,0
			c-0.4,0-0.8-0.3-0.8-0.7c-0.1-2.7-0.7-5.2-1.8-7.6c-1.4-2.9-3.3-5.6-5.9-7.6c-2.7-2.2-6-3.8-9.5-4.4c-3.8-0.6-7.7-0.2-11.2,1.2
			c0.5,1.1,1,2.3,1.4,3.5c0.1,0.4-0.1,0.9-0.5,1c-0.1,0-0.2,0-0.3,0c-0.3,0-0.7-0.2-0.8-0.6c-0.7-2-1.6-3.9-2.6-5.7
			c-0.5-0.7-1-1.4-1.5-2.1c-2.7-3.6-6.1-6.6-10.1-8.7c-4.5-2.3-9.6-3.4-14.6-3.2c-4.9,0.2-9.8,1.7-14,4.3
			c-5.6,3.5-9.8,8.9-11.9,15.1c-0.9,2.5-1.2,5-1.5,7.6c7.6,1.4,15.3,2.8,23,4.2c0,4,0,8.1,0,12.1v1.4c0,0.3,0,0.7,0,1
			c0,5.2,0,11.4,0,19.7c0,17.3,0,20.4,0,24.8c0,0,0.1,2.4-0.2,6.1c0.3,0.1,0.5,0.3,0.8,0.4l-0.6,1.3c-0.1,0-0.2-0.1-0.3-0.2
			c-0.6,7.7-2.5,19.9-8.3,29.5c-16.9,28.3-47.5,41.1-55.3,43.9c-7.8-2.8-38.2-15.6-55.1-43.9c-5.9-9.9-7.7-22.3-8.3-30
			c-0.1,0-0.2,0.1-0.2,0.1l-0.6-1.2c0.3-0.1,0.5-0.3,0.8-0.4c-0.2-3.5-0.1-5.6-0.1-5.6c0-4.5,0-7.5,0-24.8c0-8.4,0-14.5,0-19.7
			c0-0.3,0-0.7,0-1v-1.4c0-4,0-8.1,0-12.1c7-1.3,14-2.6,21-3.9c-0.2-2.7-0.6-5.3-1.5-7.9c-2.1-6.2-6.4-11.7-11.9-15.1
			c-4.2-2.6-9.1-4.1-14-4.3c-5-0.3-10.1,0.9-14.6,3.2c-4,2.1-7.4,5.1-10.1,8.7c-0.5,0.7-1,1.4-1.5,2.1c-1.1,1.8-2,3.7-2.6,5.7
			c-0.1,0.3-0.4,0.6-0.8,0.6c-0.1,0-0.2,0-0.3,0c-0.4-0.1-0.7-0.6-0.5-1c0.4-1.2,0.9-2.4,1.4-3.5c-3.5-1.4-7.5-1.8-11.2-1.2
			c-3.5,0.6-6.8,2.1-9.5,4.4c-2.5,2-4.5,4.7-5.9,7.6c-1.1,2.4-1.7,4.9-1.8,7.6c0,0.4-0.4,0.7-0.8,0.7c0,0,0,0,0,0
			c-0.4,0-0.8-0.3-0.8-0.8c0.1-1.9,0.4-3.7,0.9-5.4c-2-0.8-4.2-1.2-6.4-1.1c-3.6,0.1-7.3,1.3-10.2,3.6c-3.6,2.8-5.7,7-6.4,11.5
			l-0.1,0c0.2-1.6,0.5-3.2,1-4.7c1.7-4.5,5.1-8.1,9.6-10.1c4.1-1.8,8.7-2,12.9-0.6c0.4-1.1,0.9-2.1,1.4-3.1c0.7-1.2,1.5-2.3,2.4-3.4
			C111.1,24.3,112.3,23.1,113.7,22.1z"/>
	</g>
	<g>
	</g>
</g>
<path class="st0" d="M234,171.9c-7.3-2.8-35.7-15.1-51.5-41.6c-8.4-14.1-7.9-34.7-7.9-34.9c0,0,0-3.8,0-3.8c0-3.5,0-8.6,0-21.2
	c0-5.8,0-10.5,0-14.6l0-5.2c0-2.4,0-4.8,0-7.2c0-1.3,0-2.5,0-3.8c9.4-1.7,49-9,59.5-11c10.6,2,21,3.9,31.5,5.8
	c9.3,1.7,18.7,3.4,28.1,5.2c0,1.2,0,2.5,0,3.7c0,2.4,0,4.9,0,7.3l0,5.2c0,4.1,0,8.8,0,14.6c0,12.6,0,17.6,0,21.2c0,0,0,3.7,0,3.8
	c0,0.2,0.5,20.8-7.9,34.9C269.9,156.8,241.3,169.1,234,171.9z"/>
<path d="M234,169.2c-8.9-3.6-34.6-15.6-49.3-40.2c-8-13.4-7.6-33.3-7.6-33.5c0,0,0-0.1,0-3.8c0-3.5,0-8.6,0-21.2
	c0-5.8,0-10.5,0-14.6l0-5.1c0-2.3,0-4.6,0-7l0-1.9c0,0,51-9.4,57-10.5c10.4,1.9,20.7,3.8,31,5.7l26,4.8l0,2.1c0,2.3,0,4.5,0,6.8
	l0,5.2c0,4.1,0,8.8,0,14.6c0,12.2,0,17.3,0,20.8c0,0,0,4.1,0,4.2c0,0.2,0.5,20.1-7.6,33.5C268.8,153.6,242.9,165.7,234,169.2z"/>
<g>
	<polygon class="st1" points="282.6,50.6 247.8,35.3 251.2,35.9 	"/>
	<polygon class="st1" points="259.7,51.7 239.3,33.8 240.8,34 	"/>
	<polygon class="st1" points="234.7,32.9 234,51.7 233.3,32.9 234,32.8 	"/>
	<polygon class="st1" points="228.2,33.8 208,51.7 226.9,34.1 	"/>
	<polygon class="st1" points="219.8,35.4 185.1,50.6 216.2,36 	"/>
</g>
<path class="st1" d="M280.3,119.2c-2.2,2.1-5.6,3.4-9.3,3.4c-3.7,0-7.1-1.3-9.3-3.4c-2.2,2.1-5.6,3.4-9.3,3.4
	c-3.7,0-7.1-1.3-9.3-3.4c-2.2,2.1-5.6,3.4-9.3,3.4c-3.7,0-7.1-1.3-9.3-3.4c-2.2,2.1-5.6,3.4-9.3,3.4c-3.7,0-7.1-1.3-9.3-3.4
	c-2.2,2.1-5.6,3.4-9.3,3.4c-3.7,0-7.1-1.3-9.3-3.4c-1.1,1.1-2.5,1.9-4.2,2.5c0.9,2.4,1.9,4.6,3.1,6.5c14.3,23.9,39.6,35.8,47.9,39.2
	c8.4-3.4,33.9-15.4,48.1-39.2c1.1-1.9,2.1-4,3-6.3C283.2,121.4,281.6,120.4,280.3,119.2z M243.1,156.7c-4.2,0-7.8-1.8-9.3-4.3
	c-1.6,2.5-5.2,4.3-9.3,4.3c-0.5,0-0.8-0.4-0.8-0.8c0-0.5,0.4-0.8,0.8-0.8c4.7,0,8.5-2.4,8.5-5.4c0-0.5,0.4-0.8,0.8-0.8
	s0.8,0.4,0.8,0.8c0,3,3.8,5.4,8.5,5.4c0.5,0,0.8,0.4,0.8,0.8C243.9,156.3,243.5,156.7,243.1,156.7z M271,138c-4.2,0-7.8-1.8-9.3-4.3
	c-1.6,2.5-5.2,4.3-9.3,4.3c-4.2,0-7.8-1.8-9.3-4.3c-1.6,2.5-5.2,4.3-9.3,4.3c-4.2,0-7.8-1.8-9.3-4.3c-1.6,2.5-5.2,4.3-9.3,4.3
	c-4.2,0-7.8-1.8-9.3-4.3c-1.6,2.5-5.2,4.3-9.3,4.3c-0.5,0-0.8-0.4-0.8-0.8c0-0.5,0.4-0.8,0.8-0.8c4.7,0,8.5-2.4,8.5-5.4
	c0-0.5,0.4-0.8,0.8-0.8c0.5,0,0.8,0.4,0.8,0.8c0,3,3.8,5.4,8.5,5.4c4.7,0,8.5-2.4,8.5-5.4c0-0.5,0.4-0.8,0.8-0.8
	c0.5,0,0.8,0.4,0.8,0.8c0,3,3.8,5.4,8.5,5.4c4.7,0,8.5-2.4,8.5-5.4c0-0.5,0.4-0.8,0.8-0.8c0.5,0,0.8,0.4,0.8,0.8
	c0,3,3.8,5.4,8.5,5.4c4.7,0,8.5-2.4,8.5-5.4c0-0.5,0.4-0.8,0.8-0.8s0.8,0.4,0.8,0.8c0,3,3.8,5.4,8.5,5.4c0.5,0,0.8,0.4,0.8,0.8
	C271.8,137.7,271.5,138,271,138z"/>
<g>
	<path class="st1" d="M149,224.2L149,224.2l-9.4-3.4v-1.4h24.9v1.4l-8.2,3.4V236c-5.7,3.1-15.5,4.6-23.4,4.6c-17,0-31-6.9-31-21.3
		c0-13.5,12.3-21,30.3-21c7.8,0,13.9,1.5,19,3.9l1.8-3.1l1.9-0.1l1.3,15l-1.5,0.1l-5.4-8.5c-4.1-2.2-9.5-3.7-17.3-3.7
		c-13.2,0-22.1,5.7-22.1,17.2c0,11.3,8.8,17.8,23.1,17.8c5.6,0,12.2-1,16-2.6V224.2z"/>
	<path class="st1" d="M201,200.7l-9.5,3.4v13.5c0,12.2,4.1,18.3,16.5,18.3c9.9,0,16.9-4.3,16.9-18.5v-13.3l-9.3-3.3v-1.4h23.8v1.4
		l-9.5,3.4v13.3c0,16.9-9.1,23.1-22.5,23.1c-17.9,0-23.5-8-23.5-23.1v-13.3l-9.5-3.3v-1.4H201V200.7z"/>
	<path class="st1" d="M252,238.1l9.4-3.4v-30.6l-9.4-3.4v-1.4h26.1v1.4l-9.4,3.3v31.7h23.1l7.9-10.5l1.5,0.4l-3.2,13.8l-32.2-0.1
		v0.1H252V238.1z"/>
	<path class="st1" d="M313.9,238.1l9.4-3.4v-30.6l-9.4-3.3v-1.4h42.6l4.5-0.6h1.6l0.4,13.6h-1.7l-4.1-9.6h-26.6v16.4h16.7l3.6-7.3
		h1.4v18.4h-1.5l-3.5-7.8h-16.6v12.2l9.4,3.4v1.4h-26.1V238.1z"/>
</g>
<g>
	<path class="st1" d="M37.3,254l21.2,35.4l9.1,3.3v1.4H42v-1.4l8.4-3.2l-4.1-6.8H18.8l-4,6.6l9.5,3.3v1.4H0v-1.4l9.2-3.3l19.5-31.1
		l-8.4-2.9V254H37.3z M21,279h23.1l-11.5-19.3L21,279z"/>
	<path class="st1" d="M70.5,292.7l9.4-3.4v-30.6l-9.4-3.4V254h26.1v1.4l-9.4,3.3v30.6l9.4,3.4v1.4H70.5V292.7z"/>
	<path class="st1" d="M127.8,273.6h8.7c7.8,0,11.6-2.2,11.6-7.7c0-5.8-3.6-8.2-11.6-8.2h-15.9v31.7l9.4,3.4v1.4h-26.1v-1.4l9.4-3.4
		v-30.6l-9.4-3.3V254h32.3c12.8,0,19.7,3,19.7,11.9c0,8-6.3,11.1-17.9,11.4c8.3,10,13.5,15.6,20.1,15.6c1,0,2.5-0.1,3.5-0.6l0.2,1.5
		c-2.1,0.6-4.8,1.1-8.5,1.1c-8.7,0-12-3.6-22-15.5l-3.7-4.4V273.6z"/>
	<path class="st1" d="M214.8,260.6c-4.1-2.5-8.7-4-17-4c-13.2,0-22.6,5.3-22.6,17.4c0,11.4,9,17.4,22.8,17.4
		c6.3,0,12.5-0.9,15.8-2.4l7.2-9.1l1.5,0.2l-2.2,11c-4.5,2.6-13.6,3.8-22.4,3.8c-18.2,0-31.1-7.1-31.1-21c0-13.9,12.5-21,31-21
		c8.4,0,13.4,1.5,18.2,3.8l2.9-2.8l1.5-0.2l1.2,15.3l-1.5,0.1L214.8,260.6z"/>
	<path class="st1" d="M255,273.6h8.7c7.8,0,11.6-2.2,11.6-7.7c0-5.8-3.6-8.2-11.6-8.2h-15.9v31.7l9.4,3.4v1.4h-26.1v-1.4l9.4-3.4
		v-30.6l-9.4-3.3V254h32.3c12.8,0,19.7,3,19.7,11.9c0,8-6.3,11.1-17.9,11.4c8.3,10,13.5,15.6,20.1,15.6c1,0,2.5-0.1,3.5-0.6l0.2,1.5
		c-2.1,0.6-4.8,1.1-8.5,1.1c-8.7,0-12-3.6-22-15.5l-3.7-4.4V273.6z"/>
	<path class="st1" d="M326.5,254l21.2,35.4l9.1,3.3v1.4h-25.6v-1.4l8.4-3.2l-4.1-6.8H308l-4,6.6l9.5,3.3v1.4h-24.3v-1.4l9.2-3.3
		l19.5-31.1l-8.4-2.9V254H326.5z M310.2,279h23.1l-11.5-19.3L310.2,279z"/>
	<path class="st1" d="M359.7,292.7l9.4-3.4v-30.6l-9.4-3.3V254h42.6l4.5-0.6h1.6l0.4,13.6h-1.7l-4.1-9.6h-26.6v16.4H393l3.6-7.3h1.4
		v18.4h-1.5l-3.5-7.8h-16.6v12.2l9.4,3.4v1.4h-26.1V292.7z"/>
	<path class="st1" d="M427.4,292.7l8.8-2.5v-32.6h-14.5l-4.8,9.9h-1.5l0.4-14.2h1.7l4.9,0.6h34.8l5-0.6h1.7l0.3,14.2h-1.7l-4.6-9.9
		h-14.5v32.6l8.7,2.5v1.4h-24.8V292.7z"/>
</g>
<g>
	<path class="st2" d="M141.6,321.5l-0.9,1.2l-0.6,0l-1-5.5l0.5,0l2.2,2.7c1.5,1,3.4,1.6,6.3,1.6c3.3,0,6-0.6,6-2.8
		c0-4.7-14.3,0-14.3-7.1c0-3.9,4.2-4.6,7.8-4.6c3.2,0,4.7,0.5,5.8,1.1l1-1l0.6,0l0.5,5.1l-0.7,0.1l-1.7-2.7
		c-1.6-0.9-3.4-1.2-5.6-1.2c-2.5,0-5.7,0.4-5.7,2.6c0,4.5,14.3,0.1,14.3,7.1c0,4.2-4.6,4.8-8.1,4.8
		C145.1,322.9,143.3,322.4,141.6,321.5z"/>
	<path class="st2" d="M191.6,307.4l8,13.4l3.5,1.2v0.5h-9.7V322l3.2-1.2l-1.5-2.6h-10.4l-1.5,2.5l3.6,1.3v0.5h-9.2V322l3.5-1.2
		l7.4-11.8l-3.2-1.1v-0.5H191.6z M185.5,316.8h8.7l-4.4-7.3L185.5,316.8z"/>
	<path class="st2" d="M224.1,322l3.6-1.3v-11.6l-3.6-1.3v-0.5h9.9v0.5l-3.6,1.3v12h8.8l3-4l0.6,0.2l-1.2,5.2l-12.2,0v0h-5.3V322z"/>
	<path class="st2" d="M264.6,322l3.6-1.3v-11.6l-3.6-1.3v-0.5h16.3l1.6-0.3h0.6l0.3,4.7h-0.6l-1.7-3h-10.1v5.4h7.1l1.4-2.7h0.5v6.6
		h-0.6l-1.3-2.6l-7.1,0v5.6h10.1l2.5-3.1h0.6l-1.1,4.8h-0.7l-2-0.3h-15.8V322z"/>
	<path class="st2" d="M310.1,321.5l-0.9,1.2l-0.6,0l-1-5.5l0.5,0l2.2,2.7c1.5,1,3.4,1.6,6.3,1.6c3.3,0,6-0.6,6-2.8
		c0-4.7-14.3,0-14.3-7.1c0-3.9,4.2-4.6,7.8-4.6c3.2,0,4.7,0.5,5.8,1.1l1-1l0.6,0l0.5,5.1l-0.7,0.1l-1.7-2.7
		c-1.6-0.9-3.4-1.2-5.6-1.2c-2.5,0-5.7,0.4-5.7,2.6c0,4.5,14.3,0.1,14.3,7.1c0,4.2-4.6,4.8-8.1,4.8
		C313.6,322.9,311.9,322.4,310.1,321.5z"/>
</g>
<path class="st2" d="M249.5,87L249.5,87l-8.7-3.2v-1.3h23v1.3l-7.6,3.2v11.1c-5.2,2.9-14.3,4.3-21.6,4.3c-15.7,0-28.7-6.5-28.7-20
	c0-12.7,11.3-19.7,28-19.7c7.2,0,12.9,1.5,17.6,3.7l1.7-2.9l1.7-0.1l1.2,14.1l-1.4,0.1l-5-8c-3.8-2-8.7-3.5-15.9-3.5
	c-12.2,0-20.4,5.3-20.4,16.2c0,10.6,8.1,16.7,21.3,16.7c5.1,0,11.2-1,14.8-2.5V87z"/>
</svg>
