<?xml version="1.0" encoding="utf-8"?>
<!-- Generator: Adobe Illustrator 20.0.0, SVG Export Plug-In . SVG Version: 6.00 Build 0)  -->
<svg version="1.1" id="Layer_1" xmlns="http://www.w3.org/2000/svg" xmlns:xlink="http://www.w3.org/1999/xlink" x="0px" y="0px"
	 viewBox="0 0 145.9 145.6" style="enable-background:new 0 0 145.9 145.6;" xml:space="preserve">
<style type="text/css">
	.st0{fill:#FFFFFF;}
</style>
<g>
	<path class="st0" d="M123.4,20.2c3.4-3.5,6.8-7,10.2-10.5c0.6-0.6,1.2-1.2,1.8-1.8c1.9-1.8,4.2-2.5,6.7-1.4s3.8,3.1,3.8,5.9
		c0,11.3,0,22.7,0,34c0,2.6,0,5.3,0,7.9c-0.1,3.7-2.6,6.3-6.3,6.3c-14,0-27.9,0-41.9,0c-2.8,0-4.8-1.3-5.9-3.8
		c-1.1-2.6-0.4-4.8,1.5-6.8c4-4,8-8,12-12c0.2-0.2,0.5-0.5,0.8-0.9c-3.1-2.9-6.4-5.3-10-7.3C76.5,19.6,53,23.5,37.7,39.5
		C33,44.4,30,50.1,27.6,56.3c-1.8,4.4-1.8,4.4-6.5,4.4c-5,0-10,0-15,0c-3.3,0-4.6-1.6-3.8-4.8C5.2,44,10.5,33.4,18.6,24.4
		C29.2,12.5,42.2,4.5,58,1.5c19.3-3.7,37.3-0.5,53.9,9.9c3.5,2.2,6.6,4.9,9.8,7.3C122.2,19.1,122.7,19.6,123.4,20.2z"/>
	<path class="st0" d="M22.8,125.5c-4,4-7.9,8-11.9,11.9c-2.7,2.6-6,2.8-8.5,0.6c-1.3-1.2-2.1-2.7-2.1-4.5c0-14.2,0-28.3,0-42.5
		c0-3.4,2.7-6,6-6c14.2,0,28.3,0,42.5,0c2.6,0,4.5,1.4,5.6,3.7c1.1,2.5,0.5,4.8-1.4,6.7c-3.8,3.9-7.7,7.7-11.6,11.6
		c-0.4,0.4-0.9,0.7-1.7,1.2c2.9,2.2,5.4,4.2,8.1,5.9c9.4,5.8,19.6,8.4,30.6,7c17.5-2.3,30.6-11.1,38.3-27.3c1-2.1,1.9-4.2,2.8-6.4
		c0.7-1.6,1.8-2.4,3.6-2.4c5.6,0.1,11.2,0,16.8,0c3,0,4.2,1.7,3.4,4.6c-2.3,9-5.8,17.5-11.2,25.2c-10.5,14.8-24.3,24.9-42.1,29
		c-21.2,4.8-40.8,1-58.7-11.3c-1.5-1-2.8-2.1-4.2-3.2C25.5,128,24.2,126.8,22.8,125.5z"/>
</g>
</svg>
