<?xml version="1.0" encoding="utf-8"?>
<!-- Generator: Adobe Illustrator 20.0.0, SVG Export Plug-In . SVG Version: 6.00 Build 0)  -->
<svg version="1.1" id="Layer_1" xmlns="http://www.w3.org/2000/svg" xmlns:xlink="http://www.w3.org/1999/xlink" x="0px" y="0px"
	 viewBox="0 0 82 82" style="enable-background:new 0 0 82 82;" xml:space="preserve">
<style type="text/css">
	.st0{fill:#E79D25;}
</style>
<g>
	<path class="st0" d="M41,82C18.4,82,0,63.6,0,41S18.4,0,41,0s41,18.4,41,41S63.6,82,41,82z M41,2C19.5,2,2,19.5,2,41s17.5,39,39,39
		s39-17.5,39-39S62.5,2,41,2z"/>
	<path class="st0" d="M35,57.1c-4.3,0-7.4-2.7-7.4-6c0-3.2,3.8-5.8,8.1-5.8c1,0,1.9,0.2,2.8,0.4c2.3,1.6,4,2.5,4.5,4.4
		c0.1,0.4,0.1,0.8,0.1,1.2C43.2,54.6,41.1,57.1,35,57.1 M36.2,38c-2.9-0.1-5.6-3.2-6.1-7s1.4-6.7,4.3-6.6s5.6,3.1,6.1,6.9
		S39,38.1,36.2,38 M42.1,43.6c-1-0.7-2.9-2.4-2.9-3.5c0-1.2,0.3-1.8,2.1-3.2s3.1-3.5,3.1-5.8c0-2.8-1.2-5.5-3.6-6.4h3.5l2.5-1.8h-11
		c-5,0-9.7,3.8-9.7,8.2c0,4.5,3.4,8.1,8.5,8.1c0.4,0,0.7,0,1,0c-0.3,0.6-0.6,1.3-0.6,2.1c0,1.2,0.7,2.3,1.5,3.1c-0.6,0-1.3,0-1.9,0
		c-6.2,0-11,3.9-11,8c0,4,5.2,6.5,11.4,6.5c7.1,0,11-4,11-8C46,47.6,45.1,45.7,42.1,43.6 M58.3,38.4H54V34h-3.5v4.3h-4.3v3.5h4.3
		v4.3H54v-4.3h4.3V38.4z"/>
</g>
</svg>
