<?xml version="1.0" encoding="utf-8"?>
<!-- Generator: Adobe Illustrator 20.0.0, SVG Export Plug-In . SVG Version: 6.00 Build 0)  -->
<svg version="1.1" id="Layer_1" xmlns="http://www.w3.org/2000/svg" xmlns:xlink="http://www.w3.org/1999/xlink" x="0px" y="0px"
	 viewBox="0 0 135.5 145.6" style="enable-background:new 0 0 135.5 145.6;" xml:space="preserve">
<style type="text/css">
	.st0{fill:#FFFFFF;}
</style>
<g>
	<path class="st0" d="M21,20.8c0-2.6,0-5,0-7.4C21.1,5.6,26.7,0,34.4,0c2.2,0,4.5-0.1,6.7,0.2c6.4,0.9,11,6.2,11.1,12.6
		c0,2.6,0,5.2,0,7.9c10.4,0,20.7,0,31.2,0c0-2.6,0-5.2,0-7.8c0.1-5.4,3.3-10.1,8.2-12c0.9-0.3,1.8-0.7,2.8-0.7
		c3.3-0.1,6.6-0.3,9.8,0.1c5.8,0.8,10.3,6.5,10.4,12.6c0,2.6,0,5.2,0,7.9c3.3,0,6.5-0.1,9.7,0c1.7,0.1,3.6,0.3,5.1,1.1
		c4.1,2,6,5.4,6,10c0,15.6,0,31.2,0,46.8c0,18.5,0,37.1,0,55.6c0,6.8-4.4,11.3-11.2,11.3c-37.6,0-75.2,0-112.9,0
		c-6.7,0-11.2-4.5-11.2-11.2c0-34.2,0-68.3,0-102.5c0-6.7,4.5-11.2,11.1-11.2C14.5,20.8,17.7,20.8,21,20.8z M125,52.1
		c-38.2,0-76.2,0-114.3,0c0,27.8,0,55.4,0,83.1c38.1,0,76.2,0,114.3,0C125,107.5,125,79.8,125,52.1z M41.8,24.7c0-3.8,0-7.6,0-11.4
		c0-1.9-0.9-2.8-2.8-2.9c-1.6,0-3.3,0-4.9,0c-1.7,0.1-2.7,1-2.7,2.7c0,7.7,0,15.4,0,23.1c0,1.8,1,2.7,2.8,2.8c1.5,0,2.9,0,4.4,0
		c2.3,0,3.2-0.9,3.2-3.2C41.8,32.1,41.8,28.4,41.8,24.7z M104.3,24.7c0-3.8,0-7.6,0-11.4c0-1.9-0.9-2.8-2.8-2.9c-1.6,0-3.3,0-4.9,0
		c-1.7,0.1-2.7,1-2.7,2.7c0,7.7,0,15.4,0,23.1c0,1.8,1,2.7,2.8,2.8c1.5,0,2.9,0,4.4,0c2.3,0,3.2-0.9,3.2-3.3
		C104.3,32.1,104.3,28.4,104.3,24.7z"/>
</g>
</svg>
