<?xml version="1.0" encoding="utf-8"?>
<!-- Generator: Adobe Illustrator 20.0.0, SVG Export Plug-In . SVG Version: 6.00 Build 0)  -->
<svg version="1.1" id="Layer_1" xmlns="http://www.w3.org/2000/svg" xmlns:xlink="http://www.w3.org/1999/xlink" x="0px" y="0px"
	 viewBox="0 0 82 82" style="enable-background:new 0 0 82 82;" xml:space="preserve">
<style type="text/css">
	.st0{fill:#E79D25;}
</style>
<g>
	<path class="st0" d="M41,82C18.4,82,0,63.6,0,41S18.4,0,41,0s41,18.4,41,41S63.6,82,41,82z M41,2C19.5,2,2,19.5,2,41s17.5,39,39,39
		s39-17.5,39-39S62.5,2,41,2z"/>
	<path class="st0" d="M52,23H30c-3.8,0-7,3.1-7,7v7.3V52c0,3.8,3.1,7,7,7h22c3.8,0,7-3.1,7-7V37.3V30C59,26.1,55.9,23,52,23z
		 M54,27.2h0.8V28v5.3h-6.1v-6.1L54,27.2z M35.9,37.3c1.1-1.6,3-2.6,5.1-2.6s4,1,5.1,2.6c0.8,1,1.2,2.3,1.2,3.7
		c0,3.5-2.8,6.3-6.3,6.3s-6.3-2.8-6.3-6.3C34.7,39.6,35.1,38.3,35.9,37.3z M55.5,52c0,1.9-1.5,3.4-3.5,3.4H30
		c-1.9,0-3.4-1.5-3.4-3.4V37.3H32c-0.5,1.1-0.7,2.4-0.7,3.7c0,5.4,4.4,9.8,9.8,9.8s9.8-4.4,9.8-9.8c0-1.3-0.3-2.6-0.7-3.7h5.4
		L55.5,52L55.5,52z"/>
</g>
</svg>
