<?xml version="1.0" encoding="utf-8"?>
<!-- Generator: Adobe Illustrator 20.0.0, SVG Export Plug-In . SVG Version: 6.00 Build 0)  -->
<svg version="1.1" id="Layer_1" xmlns="http://www.w3.org/2000/svg" xmlns:xlink="http://www.w3.org/1999/xlink" x="0px" y="0px"
	 viewBox="0 0 82 82" style="enable-background:new 0 0 82 82;" xml:space="preserve">
<style type="text/css">
	.st0{fill:#E79D25;}
</style>
<g>
	<path class="st0" d="M41,82C18.4,82,0,63.6,0,41S18.4,0,41,0s41,18.4,41,41S63.6,82,41,82z M41,2C19.5,2,2,19.5,2,41s17.5,39,39,39
		s39-17.5,39-39S62.5,2,41,2z"/>
	<path class="st0" d="M59,33.6c-0.2,3.5-2.6,8.3-7.3,14.4c-4.9,6.3-9,9.5-12.4,9.5c-2.1,0-3.9-1.9-5.3-5.8c-1-3.6-1.9-7.1-2.9-10.6
		c-1.1-3.9-2.2-5.8-3.5-5.8c-0.3,0-1.2,0.6-2.8,1.7L23,34.7c1.8-1.6,3.5-3.1,5.2-4.7c2.4-2,4.1-3.1,5.3-3.2c2.8-0.3,4.5,1.6,5.2,5.7
		c0.7,4.4,1.2,7.2,1.4,8.2c0.8,3.7,1.7,5.5,2.7,5.5c0.8,0,1.9-1.2,3.4-3.5c1.5-2.4,2.3-4.2,2.4-5.4c0.2-2-0.6-3.1-2.4-3.1
		c-0.9,0-1.7,0.2-2.7,0.6c1.8-5.8,5.2-8.6,10.2-8.4C57.4,26.5,59.2,28.9,59,33.6z"/>
</g>
</svg>
