<?xml version="1.0" encoding="utf-8"?>
<!-- Generator: Adobe Illustrator 20.0.0, SVG Export Plug-In . SVG Version: 6.00 Build 0)  -->
<svg version="1.1" id="Layer_1" xmlns="http://www.w3.org/2000/svg" xmlns:xlink="http://www.w3.org/1999/xlink" x="0px" y="0px"
	 viewBox="0 0 144.3 145.6" style="enable-background:new 0 0 144.3 145.6;" xml:space="preserve">
<style type="text/css">
	.st0{fill:#FFFFFF;}
</style>
<g>
	<path class="st0" d="M72.2,1.3c39.9,0,72.1,32.2,72.1,72.2c0,39.9-32.2,72.1-72.1,72.2c-39.9,0-72.3-32.3-72.2-72.2
		C0.1,33.5,32.2,1.3,72.2,1.3z M48.1,73.4c0,9.8,0,19.6,0,29.5c0,5.7,4.7,8.5,9.6,5.6c16.7-9.8,33.4-19.6,50.1-29.5
		c4.8-2.8,4.8-8.1,0-10.9c-16.7-9.9-33.5-19.7-50.2-29.5c-1.1-0.6-2.4-1.1-3.7-1.1c-3.4-0.1-5.8,2.7-5.8,6.5
		C48.1,53.7,48.1,63.5,48.1,73.4z"/>
</g>
</svg>
