<?xml version="1.0" encoding="utf-8"?>
<!-- Generator: Adobe Illustrator 20.0.0, SVG Export Plug-In . SVG Version: 6.00 Build 0)  -->
<svg version="1.1" id="Layer_1" xmlns="http://www.w3.org/2000/svg" xmlns:xlink="http://www.w3.org/1999/xlink" x="0px" y="0px"
	 viewBox="0 0 158.1 145.6" style="enable-background:new 0 0 158.1 145.6;" xml:space="preserve">
<style type="text/css">
	.st0{fill:#FFFFFF;}
</style>
<g>
	<path class="st0" d="M24.5,121.4c-1,0-1.9,0-2.7,0c-6,0-11.9,0-17.9,0c-2.4,0-3.6-1.2-3.6-3.6c0-13-0.1-26,0-39
		c0.1-10,8.1-17.9,18.1-18c2,0,3.9,0,6.1,0c0-0.7,0-1.2,0-1.8c0-16.2,0-32.5,0-48.7C24.5,3.6,28.1,0,34.7,0c20.5,0,41,0,61.4,0
		c6.4,0,12.1,2.1,16.7,6.4c5.1,4.8,10.1,9.8,14.9,14.9c4.1,4.4,6,9.9,6.1,15.9c0,7.2,0,14.4,0,21.5c0,0.6,0,1.1,0,1.9
		c2,0,3.9,0,5.8,0c7.1,0,12.4,3.2,16.1,9.2c1.7,2.8,2.4,5.9,2.4,9.1c0,12.8,0,25.7,0,38.5c0,2.7-1.1,3.9-3.9,3.9
		c-6.7,0-13.4,0-20.3,0c0,0.5-0.1,0.9-0.1,1.4c0,4.3,0,8.7,0,13c0,6.1-3.8,9.9-9.8,9.9c-29.8,0-59.7,0-89.5,0c-6.2,0-9.9-3.7-9.9-10
		C24.5,131,24.5,126.3,24.5,121.4z M36.8,12.2c0,20.3,0,40.4,0,60.6c28.3,0,56.5,0,84.8,0c0-12.1,0-24.2,0-36.4c-0.6,0-1.2,0-1.7,0
		c-4.3,0-8.7,0-13,0c-5.6-0.1-9.4-3.9-9.4-9.5c0-4.3,0-8.7,0-13c0-0.5,0-1.1,0-1.7C77.1,12.2,57,12.2,36.8,12.2z M36.7,133.4
		c28.4,0,56.6,0,84.8,0c0-8.1,0-16.1,0-24.1c-28.3,0-56.5,0-84.8,0C36.7,117.4,36.7,125.3,36.7,133.4z M145.9,78.9
		c0-3.3-2.8-6.1-6.1-6.1s-6.1,2.8-6.1,6.1c0,3.3,2.8,6.1,6.1,6.1C143.1,85,145.9,82.2,145.9,78.9z"/>
</g>
</svg>
