<?xml version="1.0" encoding="utf-8"?>
<!-- Generator: Adobe Illustrator 20.0.0, SVG Export Plug-In . SVG Version: 6.00 Build 0)  -->
<svg version="1.1" id="Layer_1" xmlns="http://www.w3.org/2000/svg" xmlns:xlink="http://www.w3.org/1999/xlink" x="0px" y="0px"
	 viewBox="0 0 186.1 145.6" style="enable-background:new 0 0 186.1 145.6;" xml:space="preserve">
<style type="text/css">
	.st0{fill:#FFFFFF;}
</style>
<g>
	<path class="st0" d="M119.9,6.6c20.5,0,41,0,61.6,0c3.6,0,4.7,1.1,4.7,4.6c0,5.8,0,11.7,0,17.5c0,3.1-1.2,4.3-4.3,4.3
		c-41.3,0-82.5,0-123.8,0c-3.1,0-4.3-1.2-4.3-4.3c0-6,0-11.9,0-17.9c0-3.1,1.2-4.3,4.3-4.3C78.6,6.6,99.2,6.6,119.9,6.6z"/>
	<path class="st0" d="M120,59.6c20.5,0,40.9,0,61.4,0c3.6,0,4.7,1.1,4.7,4.6c0,5.8,0,11.7,0,17.5c0,3.1-1.2,4.3-4.3,4.3
		c-41.3,0-82.5,0-123.8,0c-3.1,0-4.3-1.2-4.3-4.3c0-6,0-11.9,0-17.9c0-3.1,1.2-4.3,4.3-4.3C78.7,59.6,99.4,59.6,120,59.6z"/>
	<path class="st0" d="M119.9,139c-20.5,0-41,0-61.6,0c-3.6,0-4.7-1.1-4.7-4.6c0-5.8,0-11.7,0-17.5c0-3.1,1.2-4.3,4.3-4.3
		c41.3,0,82.5,0,123.8,0c3.1,0,4.3,1.2,4.3,4.3c0,6,0,11.9,0,17.9c0,3.1-1.2,4.3-4.3,4.3C161.1,139,140.5,139,119.9,139z"/>
	<path class="st0" d="M0.7,72.7c0-11,8.9-19.8,20-19.7s19.8,8.9,19.8,20c-0.1,11-8.9,19.8-20,19.7C9.4,92.6,0.7,83.8,0.7,72.7z"/>
	<path class="st0" d="M20.6,105.9c11.1,0,19.8,8.9,19.8,19.9s-8.9,19.8-19.9,19.8c-11.1,0-19.8-8.8-19.8-19.9
		C0.7,114.7,9.6,105.9,20.6,105.9z"/>
	<path class="st0" d="M20.6,0c11,0.1,19.8,8.9,19.8,19.8c-0.1,11.2-8.9,20-20,19.9c-11.1-0.1-19.8-9-19.8-20.1
		C0.8,8.7,9.7-0.1,20.6,0z"/>
</g>
</svg>
