<?xml version="1.0" encoding="utf-8"?>
<!-- Generator: Adobe Illustrator 19.2.0, SVG Export Plug-In . SVG Version: 6.00 Build 0)  -->
<svg version="1.1" id="Layer_1" xmlns="http://www.w3.org/2000/svg" xmlns:xlink="http://www.w3.org/1999/xlink" x="0px" y="0px"
	 viewBox="0 0 464 124.3" style="enable-background:new 0 0 464 124.3;" xml:space="preserve">
<style type="text/css">
	.st0{fill:#F2F2F2;}
	.st1{fill:#E99E00;}
</style>
<g>
	<path class="st0" d="M148.9,25.9L148.9,25.9l-9.4-3.4v-1.4h24.9v1.4l-8.2,3.4v11.8c-5.7,3.1-15.5,4.6-23.4,4.6
		c-17,0-31-6.9-31-21.3c0-13.5,12.3-21,30.3-21c7.8,0,13.9,1.5,19,3.9l1.8-3.1l1.9-0.1l1.3,15l-1.5,0.1l-5.4-8.5
		c-4.1-2.2-9.5-3.7-17.3-3.7c-13.2,0-22.1,5.7-22.1,17.2c0,11.3,8.8,17.8,23.1,17.8c5.6,0,12.2-1,16-2.6V25.9z"/>
	<path class="st0" d="M201,2.5l-9.5,3.4v13.5c0,12.2,4.1,18.3,16.5,18.3c9.9,0,16.9-4.3,16.9-18.5V5.8l-9.3-3.3V1.1h23.8v1.4
		l-9.5,3.4v13.3c0,16.9-9.1,23.1-22.5,23.1c-17.9,0-23.5-8-23.5-23.1V5.8l-9.5-3.3V1.1H201V2.5z"/>
	<path class="st0" d="M251.9,39.8l9.4-3.4V5.8l-9.4-3.4V1.1H278v1.4l-9.4,3.3v31.7h23.1l7.9-10.5l1.5,0.4L298,41.2l-32.2-0.1v0.1
		h-13.9V39.8z"/>
	<path class="st0" d="M313.9,39.8l9.4-3.4V5.8l-9.4-3.3V1.1h42.6l4.5-0.6h1.6l0.4,13.6h-1.7l-4.1-9.6h-26.6v16.4h16.7l3.6-7.3h1.4
		V32h-1.5l-3.5-7.8h-16.6v12.2l9.4,3.4v1.4h-26.1V39.8z"/>
</g>
<g>
	<path class="st0" d="M37.3,55.7l21.2,35.4l9.1,3.3v1.4H42v-1.4l8.4-3.2l-4.1-6.8H18.8l-4,6.6l9.5,3.3v1.4H0v-1.4l9.2-3.3L28.7,60
		l-8.4-2.9v-1.4H37.3z M21,80.7H44L32.5,61.4L21,80.7z"/>
	<path class="st0" d="M70.4,94.4l9.4-3.4V60.4l-9.4-3.4v-1.4h26.1v1.4l-9.4,3.3V91l9.4,3.4v1.4H70.4V94.4z"/>
	<path class="st0" d="M127.7,75.3h8.7c7.8,0,11.6-2.2,11.6-7.7c0-5.8-3.6-8.2-11.6-8.2h-15.9V91l9.4,3.4v1.4h-26.1v-1.4l9.4-3.4
		V60.4l-9.4-3.3v-1.4h32.3c12.8,0,19.7,3,19.7,11.9c0,8-6.3,11.1-17.9,11.4c8.3,10,13.5,15.6,20.1,15.6c1,0,2.5-0.1,3.5-0.6l0.2,1.5
		c-2.1,0.6-4.8,1.1-8.5,1.1c-8.7,0-12-3.6-22-15.5l-3.7-4.4V75.3z"/>
	<path class="st0" d="M214.8,62.3c-4.1-2.5-8.7-4-17-4c-13.2,0-22.6,5.3-22.6,17.4c0,11.4,9,17.4,22.8,17.4c6.3,0,12.5-0.9,15.8-2.4
		l7.2-9.1l1.5,0.2l-2.2,11c-4.5,2.6-13.6,3.8-22.4,3.8c-18.2,0-31.1-7.1-31.1-21c0-13.9,12.5-21,31-21c8.4,0,13.4,1.5,18.2,3.8
		l2.9-2.8l1.5-0.2l1.2,15.3l-1.5,0.1L214.8,62.3z"/>
	<path class="st0" d="M255,75.3h8.7c7.8,0,11.6-2.2,11.6-7.7c0-5.8-3.6-8.2-11.6-8.2h-15.9V91l9.4,3.4v1.4h-26.1v-1.4l9.4-3.4V60.4
		l-9.4-3.3v-1.4h32.3c12.8,0,19.7,3,19.7,11.9c0,8-6.3,11.1-17.9,11.4c8.3,10,13.5,15.6,20.1,15.6c1,0,2.5-0.1,3.5-0.6l0.2,1.5
		c-2.1,0.6-4.8,1.1-8.5,1.1c-8.7,0-12-3.6-22-15.5l-3.7-4.4V75.3z"/>
	<path class="st0" d="M326.5,55.7l21.2,35.4l9.1,3.3v1.4h-25.6v-1.4l8.4-3.2l-4.1-6.8h-27.5l-4,6.6l9.5,3.3v1.4h-24.3v-1.4l9.2-3.3
		L317.9,60l-8.4-2.9v-1.4H326.5z M310.2,80.7h23.1l-11.5-19.3L310.2,80.7z"/>
	<path class="st0" d="M359.6,94.4L369,91V60.4l-9.4-3.3v-1.4h42.6l4.5-0.6h1.6l0.4,13.6H407l-4.1-9.6h-26.6v16.4H393l3.6-7.3h1.4
		v18.4h-1.5l-3.5-7.8h-16.6V91l9.4,3.4v1.4h-26.1V94.4z"/>
	<path class="st0" d="M427.3,94.4l8.8-2.5V59.3h-14.5l-4.8,9.9h-1.5l0.4-14.2h1.7l4.9,0.6h34.8l5-0.6h1.7l0.3,14.2h-1.7l-4.6-9.9
		h-14.5v32.6l8.7,2.5v1.4h-24.8V94.4z"/>
</g>
<g>
	<path class="st1" d="M141.6,123.3l-0.9,1.2l-0.6,0l-1-5.5l0.5,0l2.2,2.7c1.5,1,3.4,1.6,6.3,1.6c3.3,0,6-0.6,6-2.8
		c0-4.7-14.3,0-14.3-7.1c0-3.9,4.2-4.6,7.8-4.6c3.2,0,4.7,0.5,5.8,1.1l1-1l0.6,0l0.5,5.1l-0.7,0.1l-1.7-2.7
		c-1.6-0.9-3.4-1.2-5.6-1.2c-2.5,0-5.7,0.4-5.7,2.6c0,4.5,14.3,0.1,14.3,7.1c0,4.2-4.6,4.8-8.1,4.8
		C145,124.7,143.3,124.1,141.6,123.3z"/>
	<path class="st1" d="M191.6,109.1l8,13.4l3.5,1.2v0.5h-9.7v-0.5l3.2-1.2L195,120h-10.4l-1.5,2.5l3.6,1.3v0.5h-9.2v-0.5l3.5-1.2
		l7.4-11.8l-3.2-1.1v-0.5H191.6z M185.4,118.6h8.7l-4.4-7.3L185.4,118.6z"/>
	<path class="st1" d="M224.1,123.8l3.6-1.3v-11.6l-3.6-1.3v-0.5h9.9v0.5l-3.6,1.3v12h8.8l3-4l0.6,0.2l-1.2,5.2l-12.2,0v0h-5.3V123.8
		z"/>
	<path class="st1" d="M264.5,123.8l3.6-1.3v-11.6l-3.6-1.3v-0.5h16.3l1.6-0.3h0.6l0.3,4.7h-0.6l-1.7-3h-10.1v5.4h7.1l1.4-2.7h0.5
		v6.6h-0.6l-1.3-2.6l-7.1,0v5.6H281l2.5-3.1h0.6l-1.1,4.8h-0.7l-2-0.3h-15.8V123.8z"/>
	<path class="st1" d="M310.1,123.3l-0.9,1.2l-0.6,0l-1-5.5l0.5,0l2.2,2.7c1.5,1,3.4,1.6,6.3,1.6c3.3,0,6-0.6,6-2.8
		c0-4.7-14.3,0-14.3-7.1c0-3.9,4.2-4.6,7.8-4.6c3.2,0,4.7,0.5,5.8,1.1l1-1l0.6,0l0.5,5.1l-0.7,0.1l-1.7-2.7
		c-1.6-0.9-3.4-1.2-5.6-1.2c-2.5,0-5.7,0.4-5.7,2.6c0,4.5,14.3,0.1,14.3,7.1c0,4.2-4.6,4.8-8.1,4.8
		C313.5,124.7,311.8,124.1,310.1,123.3z"/>
</g>
</svg>
